<svg width="439" height="330" viewBox="0 0 439 330" fill="none" xmlns="http://www.w3.org/2000/svg">
<path opacity="0.45" d="M109.515 162.579C84.335 162.475 60.14 172.36 42.2353 190.068C24.3305 207.776 14.1772 231.863 14.0001 257.047C13.9819 269.47 16.4444 281.771 21.2432 293.229C26.042 304.687 33.0803 315.072 41.9453 323.773C45.6998 327.462 50.7529 329.53 56.0165 329.53C61.2802 329.53 66.3333 327.462 70.0878 323.773C71.9352 321.954 73.4024 319.787 74.4039 317.395C75.4055 315.004 75.921 312.438 75.921 309.845C75.921 307.253 75.4055 304.687 74.4039 302.296C73.4024 299.904 71.9352 297.737 70.0878 295.918C64.922 290.836 60.8192 284.777 58.0187 278.093C55.2181 271.409 53.776 264.235 53.776 256.988C53.776 249.741 55.2181 242.566 58.0187 235.883C60.8192 229.199 64.922 223.139 70.0878 218.058C80.5883 207.725 94.7285 201.934 109.459 201.934C124.189 201.934 138.33 207.725 148.83 218.058C153.996 223.139 158.099 229.199 160.899 235.883C163.7 242.566 165.142 249.741 165.142 256.988C165.142 264.235 163.7 271.409 160.899 278.093C158.099 284.777 153.996 290.836 148.83 295.918C146.983 297.736 145.515 299.903 144.514 302.294C143.513 304.685 142.997 307.251 142.997 309.843C142.997 312.435 143.513 315.001 144.514 317.391C145.515 319.782 146.983 321.949 148.83 323.767C152.585 327.457 157.638 329.524 162.901 329.524C168.165 329.524 173.218 327.457 176.973 323.767C185.859 315.077 192.921 304.698 197.741 293.241C202.561 281.783 205.043 269.478 205.042 257.047C204.864 231.861 194.709 207.773 176.802 190.064C158.895 172.355 134.698 162.472 109.515 162.579V162.579Z" fill="url(#paint0_linear_15101_192)"/>
<path opacity="0.45" d="M357.41 0.000850851C335.912 -0.0974538 315.252 8.32616 299.963 23.4238C284.675 38.5214 276.005 59.0601 275.857 80.5343C275.857 102.139 284.449 122.86 299.744 138.137C315.038 153.414 335.781 161.996 357.41 161.996C379.04 161.996 399.783 153.414 415.077 138.137C430.371 122.86 438.963 102.139 438.963 80.5343C438.815 59.0601 430.146 38.5214 414.857 23.4238C399.569 8.32616 378.909 -0.0974538 357.41 0.000850851V0.000850851ZM357.41 123.068C349.009 122.973 340.823 120.397 333.883 115.665C326.943 110.933 321.56 104.256 318.411 96.4747C315.262 88.6934 314.488 80.1554 316.186 71.9355C317.884 63.7156 321.978 56.1811 327.953 50.2803C333.929 44.3795 341.518 40.3762 349.765 38.7742C358.013 37.1722 366.552 38.0431 374.305 41.2774C382.059 44.5117 388.681 49.9647 393.339 56.9501C397.997 63.9356 400.482 72.1412 400.481 80.5343C400.449 86.1521 399.31 91.7085 397.128 96.8864C394.946 102.064 391.764 106.762 387.765 110.712C383.765 114.662 379.026 117.786 373.818 119.906C368.61 122.026 363.034 123.101 357.41 123.068Z" fill="url(#paint1_linear_15101_192)"/>
<g opacity="0.4" filter="url(#filter0_f_15101_192)">
<rect width="320.869" height="213.555" rx="13.3148" transform="matrix(1 0 0 -1 30.1338 298.26)" fill="url(#paint2_linear_15101_192)"/>
</g>
<g clip-path="url(#clip0_15101_192)">
<rect x="40.8652" y="61.0958" width="341.746" height="218.493" rx="6.72287" fill="url(#paint3_linear_15101_192)"/>
<path opacity="0.4" d="M109.489 163.621C84.3086 163.516 60.1137 173.401 42.2089 191.109C24.3042 208.817 14.1508 232.904 13.9737 258.088C13.9556 270.511 16.418 282.812 21.2168 294.27C26.0156 305.728 33.0539 316.113 41.919 324.814C45.6735 328.503 50.7266 330.571 55.9902 330.571C61.2538 330.571 66.3069 328.503 70.0614 324.814C71.9089 322.995 73.3761 320.828 74.3776 318.436C75.3791 316.045 75.8946 313.479 75.8946 310.887C75.8946 308.294 75.3791 305.728 74.3776 303.337C73.3761 300.945 71.9089 298.778 70.0614 296.959C64.8956 291.877 60.7928 285.818 57.9923 279.134C55.1918 272.45 53.7496 265.276 53.7496 258.029C53.7496 250.782 55.1918 243.607 57.9923 236.924C60.7928 230.24 64.8956 224.18 70.0614 219.099C80.5619 208.766 94.7022 202.975 109.433 202.975C124.163 202.975 138.303 208.766 148.804 219.099C153.97 224.18 158.072 230.24 160.873 236.924C163.673 243.607 165.116 250.782 165.116 258.029C165.116 265.276 163.673 272.45 160.873 279.134C158.072 285.818 153.97 291.877 148.804 296.959C146.957 298.777 145.489 300.944 144.488 303.335C143.486 305.726 142.971 308.292 142.971 310.884C142.971 313.476 143.486 316.042 144.488 318.432C145.489 320.823 146.957 322.99 148.804 324.808C152.558 328.498 157.611 330.565 162.875 330.565C168.139 330.565 173.192 328.498 176.946 324.808C185.833 316.118 192.894 305.739 197.714 294.282C202.535 282.824 205.016 270.519 205.015 258.088C204.838 232.902 194.683 208.814 176.776 191.105C158.869 173.396 134.671 163.513 109.489 163.621V163.621Z" fill="url(#paint4_linear_15101_192)"/>
<path d="M357.384 1.04187C335.886 0.943562 315.226 9.36718 299.937 24.4648C284.648 39.5624 275.979 60.1011 275.831 81.5753C275.831 103.18 284.423 123.901 299.717 139.178C315.011 154.455 335.755 163.037 357.384 163.037C379.013 163.037 399.756 154.455 415.051 139.178C430.345 123.901 438.937 103.18 438.937 81.5753C438.789 60.1011 430.12 39.5624 414.831 24.4648C399.542 9.36718 378.883 0.943562 357.384 1.04187V1.04187ZM357.384 124.109C348.982 124.014 340.796 121.438 333.857 116.706C326.917 111.974 321.534 105.297 318.385 97.5157C315.236 89.7344 314.461 81.1964 316.159 72.9765C317.857 64.7566 321.952 57.2221 327.927 51.3213C333.902 45.4205 341.491 41.4172 349.739 39.8152C357.987 38.2132 366.525 39.0842 374.279 42.3184C382.032 45.5527 388.655 51.0057 393.312 57.9912C397.97 64.9766 400.455 73.1823 400.455 81.5753C400.423 87.1931 399.283 92.7496 397.101 97.9274C394.919 103.105 391.738 107.803 387.738 111.753C383.739 115.703 379 118.827 373.792 120.947C368.583 123.067 363.008 124.142 357.384 124.109Z" fill="url(#paint5_linear_15101_192)"/>
<g opacity="0.6">
<path d="M133.875 172.805C135.02 171.66 135.664 170.107 135.664 168.487C135.664 166.868 135.02 165.314 133.875 164.169" stroke="white" stroke-width="2.8012" stroke-linecap="round" stroke-linejoin="round"/>
<path d="M138.574 175.671C140.201 173.63 141.086 171.096 141.086 168.486C141.085 165.876 140.199 163.343 138.572 161.301" stroke="white" stroke-width="2.8012" stroke-linecap="round" stroke-linejoin="round"/>
<path d="M142.716 178.497C144.895 175.632 146.08 172.135 146.091 168.535C146.101 164.936 144.937 161.432 142.774 158.554" stroke="white" stroke-width="2.8012" stroke-linecap="round" stroke-linejoin="round"/>
<path d="M147.342 155.613C150.138 159.477 151.601 164.146 151.508 168.914C151.416 173.682 149.773 178.291 146.828 182.043" stroke="white" stroke-width="2.8012" stroke-linecap="round" stroke-linejoin="round"/>
</g>
<rect x="77.5607" y="150.482" width="47.4803" height="34.4469" rx="7.00299" fill="url(#paint6_linear_15101_192)" stroke="url(#paint7_linear_15101_192)" stroke-width="0.560239"/>
<mask id="mask0_15101_192" style="mask-type:alpha" maskUnits="userSpaceOnUse" x="77" y="150" width="48" height="35">
<rect x="78.1209" y="151.042" width="46.3598" height="33.3264" rx="6.44275" fill="#DCD59E" stroke="black" stroke-width="0.560239"/>
</mask>
<g mask="url(#mask0_15101_192)">
<path opacity="0.5" fill-rule="evenodd" clip-rule="evenodd" d="M102.406 151.872C101.996 151.037 100.805 151.037 100.394 151.872L96.1782 160.459C96.1782 160.459 98.267 166.767 96.1782 173.961L100.375 183.473C100.768 184.363 102.032 184.363 102.425 183.473L106.622 173.961C106.622 173.961 104.533 170.051 106.622 160.459L102.406 151.872Z" stroke="#BFB985" stroke-width="0.728311" stroke-linejoin="bevel"/>
<path opacity="0.5" d="M77.3794 160.413H96.0458" stroke="#BFB985" stroke-width="0.728311" stroke-linejoin="bevel"/>
<path opacity="0.5" d="M106.179 160.413H125.378" stroke="#BFB985" stroke-width="0.728311" stroke-linejoin="bevel"/>
<path opacity="0.5" d="M77.3794 173.858H96.0458" stroke="#BFB985" stroke-width="0.728311" stroke-linejoin="bevel"/>
<path opacity="0.5" d="M106.179 173.858H125.378" stroke="#BFB985" stroke-width="0.728311" stroke-linejoin="bevel"/>
</g>
<path fill-rule="evenodd" clip-rule="evenodd" d="M109.613 87.4428C109.871 87.1772 110.074 86.8628 110.21 86.518C110.346 86.1731 110.411 85.8047 110.403 85.4342C110.395 85.0637 110.313 84.6985 110.163 84.3599C110.012 84.0213 109.796 83.716 109.526 83.462C107.819 81.8442 105.678 80.7589 103.365 80.3387C101.051 79.9185 98.665 80.1816 96.4986 81.0958C94.3321 82.0101 92.479 83.5358 91.1659 85.4866C89.8528 87.4373 89.1366 89.7283 89.1049 92.0796C89.1366 94.4309 89.8528 96.722 91.1659 98.6727C92.479 100.623 94.3321 102.149 96.4986 103.063C98.665 103.978 101.051 104.241 103.365 103.821C105.678 103.4 107.819 102.315 109.526 100.697C109.796 100.443 110.012 100.138 110.163 99.7994C110.313 99.4608 110.395 99.0956 110.403 98.7251C110.411 98.3545 110.346 97.9861 110.21 97.6413C110.074 97.2964 109.871 96.982 109.613 96.7164C109.087 96.1773 108.371 95.8663 107.618 95.8504C106.865 95.8344 106.136 96.1148 105.588 96.6311C104.373 97.7782 102.758 98.4068 101.087 98.3835C99.4157 98.3602 97.8192 97.6869 96.636 96.5063C96.0538 95.9255 95.5919 95.2355 95.2767 94.4759C94.9616 93.7163 94.7993 92.902 94.7993 92.0796C94.7993 91.2572 94.9616 90.4429 95.2767 89.6833C95.5919 88.9237 96.0538 88.2337 96.636 87.6529C97.8192 86.4723 99.4157 85.799 101.087 85.7757C102.758 85.7524 104.373 86.381 105.588 87.5281C106.136 88.0445 106.865 88.3249 107.618 88.3088C108.371 88.2927 109.087 87.9814 109.613 87.442V87.4428ZM62.8309 84.0756C65.3914 81.5438 68.8514 80.1306 72.4523 80.1458C76.0532 80.1306 79.5131 81.5438 82.0736 84.0756C84.6342 86.6075 86.0863 90.0513 86.1116 93.6522C86.1117 95.4293 85.7566 97.1885 85.0673 98.8265C84.3781 100.464 83.3684 101.948 82.0977 103.191C81.5609 103.718 80.8383 104.014 80.0856 104.014C79.3329 104.014 78.6103 103.718 78.0734 103.191C77.8092 102.931 77.5994 102.621 77.4562 102.279C77.313 101.937 77.2393 101.57 77.2393 101.199C77.2393 100.829 77.313 100.462 77.4562 100.12C77.5994 99.778 77.8092 99.4681 78.0734 99.2081C78.8123 98.4815 79.399 97.6151 79.7996 96.6595C80.2001 95.7038 80.4064 94.6779 80.4064 93.6417C80.4064 92.6055 80.2001 91.5796 79.7996 90.6239C79.399 89.6682 78.8123 88.8018 78.0734 88.0753C76.5717 86.5979 74.5496 85.77 72.443 85.77C70.3365 85.77 68.3143 86.5979 66.8126 88.0753C66.0738 88.8018 65.487 89.6682 65.0865 90.6239C64.6859 91.5796 64.4796 92.6055 64.4796 93.6417C64.4796 94.6779 64.6859 95.7038 65.0865 96.6595C65.487 97.6151 66.0738 98.4815 66.8126 99.2081C67.0768 99.4681 67.2866 99.778 67.4298 100.12C67.573 100.462 67.6468 100.829 67.6468 101.199C67.6468 101.57 67.573 101.937 67.4298 102.279C67.2866 102.621 67.0768 102.931 66.8126 103.191C66.2757 103.718 65.5532 104.014 64.8005 104.014C64.0478 104.014 63.3252 103.718 62.7883 103.191C61.521 101.947 60.5147 100.462 59.8287 98.8243C59.1426 97.1864 58.7905 95.428 58.793 93.6522C58.8183 90.0513 60.2704 86.6075 62.8309 84.0756ZM124.801 80.146C121.618 80.1314 118.56 81.3798 116.297 83.6173C114.033 85.8548 112.75 88.8987 112.728 92.0812C112.728 95.2832 114 98.354 116.264 100.618C118.528 102.882 121.599 104.154 124.801 104.154C128.003 104.154 131.074 102.882 133.338 100.618C135.602 98.354 136.874 95.2832 136.874 92.0812C136.852 88.8987 135.569 85.8548 133.305 83.6173C131.042 81.3798 127.983 80.1314 124.801 80.146ZM124.801 98.3849C123.557 98.3708 122.345 97.989 121.318 97.2877C120.291 96.5864 119.494 95.5969 119.028 94.4436C118.561 93.2904 118.447 92.0251 118.698 90.8069C118.949 89.5887 119.556 88.472 120.44 87.5975C121.325 86.723 122.448 86.1297 123.669 85.8923C124.89 85.6549 126.154 85.7839 127.302 86.2633C128.45 86.7426 129.43 87.5507 130.12 88.586C130.809 89.6213 131.177 90.8374 131.177 92.0812C131.172 92.9138 131.004 93.7373 130.681 94.5047C130.358 95.272 129.887 95.9683 129.295 96.5536C128.702 97.139 128.001 97.602 127.23 97.9162C126.459 98.2304 125.633 98.3897 124.801 98.3849ZM153.405 80.146C149.804 80.131 146.344 81.5443 143.784 84.0761C141.223 86.6079 139.772 90.0517 139.746 93.6523C139.744 95.4285 140.096 97.1872 140.782 98.8254C141.468 100.464 142.475 101.948 143.742 103.192C144.279 103.72 145.002 104.015 145.754 104.015C146.507 104.015 147.23 103.72 147.767 103.192C148.031 102.932 148.241 102.622 148.384 102.281C148.527 101.939 148.601 101.572 148.601 101.201C148.601 100.83 148.527 100.464 148.384 100.122C148.241 99.7798 148.031 99.4699 147.767 99.2099C147.028 98.4833 146.441 97.617 146.041 96.6614C145.64 95.7058 145.434 94.68 145.434 93.6439C145.434 92.6077 145.64 91.582 146.041 90.6264C146.441 89.6708 147.028 88.8044 147.767 88.0779C149.268 86.6006 151.29 85.7727 153.397 85.7727C155.503 85.7727 157.525 86.6006 159.027 88.0779C159.765 88.8044 160.352 89.6708 160.752 90.6264C161.153 91.582 161.359 92.6077 161.359 93.6439C161.359 94.68 161.153 95.7058 160.752 96.6614C160.352 97.617 159.765 98.4833 159.027 99.2099C158.762 99.4698 158.553 99.7797 158.409 100.121C158.266 100.463 158.192 100.83 158.192 101.201C158.192 101.571 158.266 101.938 158.409 102.28C158.553 102.622 158.762 102.932 159.027 103.192C159.564 103.719 160.286 104.015 161.039 104.015C161.791 104.015 162.514 103.719 163.051 103.192C164.322 101.949 165.331 100.465 166.021 98.8271C166.71 97.1889 167.065 95.4296 167.065 93.6523C167.039 90.0514 165.587 86.6074 163.027 84.0755C160.466 81.5437 157.006 80.1305 153.405 80.146ZM104.023 92.0649C104.031 93.6189 102.764 94.8857 101.192 94.8944C99.6206 94.9031 98.3394 93.6504 98.3308 92.0964C98.3222 90.5424 99.5894 89.2756 101.161 89.2669C102.733 89.2582 104.014 90.5109 104.023 92.0649Z" fill="white"/>
<path d="M182.926 89.9263H177.344V103.623H179.785V98.7131H182.926C185.967 98.7131 187.267 96.5462 187.267 94.3197C187.267 92.1329 185.967 89.9263 182.926 89.9263ZM182.806 96.5263H179.785V92.0931H182.866C184.266 92.0931 184.827 93.2462 184.827 94.3197C184.827 95.4329 184.246 96.5263 182.806 96.5263Z" fill="white"/>
<path d="M197.946 98.892C197.946 95.9895 195.845 94.1407 193.164 94.1407C190.503 94.1407 188.263 96.0094 188.263 98.9715C188.263 101.874 190.383 103.822 193.184 103.822C194.885 103.822 196.525 103.106 197.386 101.755L195.845 100.582C195.285 101.337 194.325 101.735 193.304 101.735C191.924 101.735 190.924 101.079 190.664 99.7866H197.886C197.926 99.4486 197.946 99.1504 197.946 98.892ZM190.664 98.1763C190.944 96.7648 191.944 96.1685 193.204 96.1685C194.505 96.1685 195.485 96.904 195.625 98.1763H190.664Z" fill="white"/>
<path d="M201.378 92.4709C202.218 92.4709 202.898 91.8546 202.898 91.0594C202.898 90.2443 202.218 89.6479 201.378 89.6479C200.558 89.6479 199.877 90.2443 199.877 91.0594C199.877 91.8546 200.558 92.4709 201.378 92.4709ZM197.537 108.156H198.757C201.378 108.156 202.538 106.546 202.538 103.961V94.3395H200.218V103.961C200.238 105.015 199.897 106.009 198.677 106.009H197.537V108.156Z" fill="white"/>
<path d="M209.675 103.822C212.336 103.822 214.657 101.894 214.657 98.9516C214.657 96.0094 212.336 94.1407 209.675 94.1407C207.014 94.1407 204.713 96.0094 204.713 98.9516C204.713 101.894 207.014 103.822 209.675 103.822ZM209.675 101.675C208.235 101.675 207.054 100.582 207.054 98.9516C207.054 97.3612 208.235 96.2877 209.675 96.2877C211.115 96.2877 212.316 97.3612 212.316 98.9516C212.316 100.582 211.115 101.675 209.675 101.675Z" fill="white"/>
<path d="M221.806 94.3395H219.825V90.9202H217.505V94.3395H215.824V96.1883H217.505V103.623H219.825V96.1883H221.806V94.3395Z" fill="white"/>
<path d="M230.547 94.3395V95.5721C229.907 94.598 228.607 94.1407 227.426 94.1407C224.965 94.1407 222.845 95.9895 222.845 98.9715C222.845 101.934 224.985 103.822 227.446 103.822C228.587 103.822 229.907 103.365 230.547 102.371V103.623H232.868V94.3395H230.547ZM227.806 101.655C226.366 101.655 225.185 100.502 225.185 98.9516C225.185 97.401 226.366 96.2877 227.806 96.2877C229.147 96.2877 230.507 97.3215 230.507 98.9516C230.507 100.582 229.227 101.655 227.806 101.655Z" fill="white"/>
<path d="M346.886 243.439C345.324 242.882 343.673 242.602 342.01 242.614C336.632 242.614 332.834 245.265 332.807 249.072C332.774 251.869 335.506 253.445 337.573 254.379C339.694 255.34 340.403 255.945 340.396 256.804C340.383 258.11 338.703 258.702 337.14 258.702C334.992 258.702 333.819 258.409 332.014 257.676L331.345 257.37L330.583 261.752C331.89 262.285 334.246 262.742 336.679 262.782C342.396 262.782 346.134 260.147 346.177 256.096C346.224 253.862 344.746 252.175 341.633 250.78C339.741 249.875 338.568 249.269 338.568 248.352C338.568 247.539 339.573 246.67 341.674 246.67C343.072 246.637 344.461 246.894 345.75 247.424L346.255 247.644L347.018 243.41L346.886 243.439V243.439ZM360.841 242.969H356.64C355.332 242.969 354.348 243.321 353.776 244.591L345.697 262.509H351.414L352.556 259.571L359.534 259.577C359.698 260.265 360.202 262.509 360.202 262.509H365.244L360.841 242.969V242.969ZM325.074 242.804H330.522L327.114 262.354H321.673L325.074 242.798V242.804V242.804ZM311.244 253.579L311.808 256.294L317.132 242.969H322.903L314.329 262.482H308.572L303.867 245.96C303.79 245.687 303.611 245.453 303.366 245.305C301.67 244.447 299.873 243.796 298.015 243.367L298.089 242.956H306.858C308.048 243.002 309.005 243.367 309.325 244.611L311.24 253.589V253.579H311.244ZM354.119 255.573L356.29 250.105C356.263 250.164 356.737 248.977 357.013 248.243L357.386 249.931L358.646 255.57H354.116V255.573H354.119Z" fill="white"/>
<path d="M59.2905 257.403C59.2905 256.488 59.5011 255.668 59.9224 254.942C60.3527 254.216 60.9308 253.651 61.6569 253.248C62.3919 252.836 63.1942 252.629 64.0637 252.629C65.0587 252.629 65.9416 252.876 66.7125 253.369C67.4924 253.853 68.0571 254.543 68.4067 255.44H66.5646C66.3226 254.947 65.9864 254.579 65.5562 254.337C65.1259 254.095 64.6284 253.974 64.0637 253.974C63.4452 253.974 62.8939 254.113 62.4099 254.391C61.9258 254.669 61.5449 255.068 61.267 255.587C60.9981 256.107 60.8636 256.712 60.8636 257.403C60.8636 258.093 60.9981 258.698 61.267 259.218C61.5449 259.738 61.9258 260.141 62.4099 260.428C62.8939 260.706 63.4452 260.845 64.0637 260.845C64.6284 260.845 65.1259 260.724 65.5562 260.482C65.9864 260.24 66.3226 259.872 66.5646 259.379H68.4067C68.0571 260.276 67.4924 260.966 66.7125 261.45C65.9416 261.934 65.0587 262.176 64.0637 262.176C63.1852 262.176 62.383 261.974 61.6569 261.571C60.9308 261.158 60.3527 260.589 59.9224 259.863C59.5011 259.137 59.2905 258.317 59.2905 257.403ZM75.8346 260.186H71.9219L71.2496 262.095H69.6496L72.9976 252.737H74.7724L78.1204 262.095H76.5069L75.8346 260.186ZM75.4043 258.935L73.885 254.592L72.3522 258.935H75.4043ZM84.43 262.095L82.2787 258.357H81.1089V262.095H79.5761V252.75H82.8031C83.5202 252.75 84.1252 252.876 84.6182 253.127C85.1202 253.378 85.4922 253.714 85.7342 254.135C85.9852 254.557 86.1107 255.027 86.1107 255.547C86.1107 256.157 85.9314 256.712 85.5729 257.214C85.2233 257.707 84.681 258.044 83.946 258.223L86.2586 262.095H84.43ZM81.1089 257.134H82.8031C83.3768 257.134 83.807 256.99 84.0939 256.703C84.3897 256.417 84.5376 256.031 84.5376 255.547C84.5376 255.063 84.3941 254.687 84.1073 254.418C83.8205 254.14 83.3857 254.001 82.8031 254.001H81.1089V257.134ZM92.3339 262.189C91.4644 262.189 90.6621 261.988 89.9271 261.584C89.201 261.172 88.6229 260.603 88.1926 259.877C87.7713 259.142 87.5607 258.317 87.5607 257.403C87.5607 256.488 87.7713 255.668 88.1926 254.942C88.6229 254.216 89.201 253.651 89.9271 253.248C90.6621 252.836 91.4644 252.629 92.3339 252.629C93.2123 252.629 94.0146 252.836 94.7407 253.248C95.4757 253.651 96.0539 254.216 96.4752 254.942C96.8965 255.668 97.1071 256.488 97.1071 257.403C97.1071 258.317 96.8965 259.142 96.4752 259.877C96.0539 260.603 95.4757 261.172 94.7407 261.584C94.0146 261.988 93.2123 262.189 92.3339 262.189ZM92.3339 260.858C92.9524 260.858 93.5037 260.719 93.9877 260.441C94.4718 260.155 94.8482 259.751 95.1172 259.231C95.395 258.702 95.534 258.093 95.534 257.403C95.534 256.712 95.395 256.107 95.1172 255.587C94.8482 255.068 94.4718 254.669 93.9877 254.391C93.5037 254.113 92.9524 253.974 92.3339 253.974C91.7154 253.974 91.1641 254.113 90.6801 254.391C90.196 254.669 89.8151 255.068 89.5372 255.587C89.2683 256.107 89.1338 256.712 89.1338 257.403C89.1338 258.093 89.2683 258.702 89.5372 259.231C89.8151 259.751 90.196 260.155 90.6801 260.441C91.1641 260.719 91.7154 260.858 92.3339 260.858ZM100.148 260.858H103.308V262.095H98.6155V252.75H100.148V260.858ZM106.123 252.75V262.095H104.59V252.75H106.123ZM115.813 262.095H114.28L109.668 255.117V262.095H108.135V252.737H109.668L114.28 259.702V252.737H115.813V262.095ZM119.358 253.987V256.73H122.585V257.981H119.358V260.845H122.989V262.095H117.826V252.737H122.989V253.987H119.358ZM134.003 260.186H130.09L129.418 262.095H127.818L131.166 252.737H132.941L136.289 262.095H134.675L134.003 260.186ZM133.573 258.935L132.054 254.592L130.521 258.935H133.573ZM142.599 262.095L140.447 258.357H139.277V262.095H137.745V252.75H140.972C141.689 252.75 142.294 252.876 142.787 253.127C143.289 253.378 143.661 253.714 143.903 254.135C144.154 254.557 144.279 255.027 144.279 255.547C144.279 256.157 144.1 256.712 143.741 257.214C143.392 257.707 142.85 258.044 142.115 258.223L144.427 262.095H142.599ZM139.277 257.134H140.972C141.545 257.134 141.976 256.99 142.262 256.703C142.558 256.417 142.706 256.031 142.706 255.547C142.706 255.063 142.563 254.687 142.276 254.418C141.989 254.14 141.554 254.001 140.972 254.001H139.277V257.134ZM151.874 260.186H147.961L147.289 262.095H145.689L149.037 252.737L150.812 252.737L154.16 262.095H152.546L151.874 260.186ZM151.444 258.935L149.924 254.592L148.391 258.935H151.444ZM157.135 252.75V258.707C157.135 259.415 157.319 259.948 157.686 260.307C158.063 260.665 158.582 260.845 159.246 260.845C159.918 260.845 160.438 260.665 160.805 260.307C161.182 259.948 161.37 259.415 161.37 258.707V252.75H162.903V258.68C162.903 259.442 162.737 260.087 162.406 260.616C162.074 261.145 161.63 261.539 161.074 261.799C160.519 262.059 159.905 262.189 159.232 262.189C158.56 262.189 157.946 262.059 157.39 261.799C156.843 261.539 156.409 261.145 156.086 260.616C155.763 260.087 155.602 259.442 155.602 258.68V252.75H157.135ZM160.631 250.747L157.659 252.213V251.083L160.631 249.443V250.747ZM169.995 252.75V259.487C169.995 260.32 169.739 260.979 169.228 261.463C168.726 261.947 168.063 262.189 167.238 262.189C166.414 262.189 165.746 261.947 165.235 261.463C164.733 260.979 164.482 260.32 164.482 259.487H166.028C166.037 259.899 166.14 260.226 166.337 260.468C166.544 260.71 166.844 260.831 167.238 260.831C167.633 260.831 167.933 260.71 168.139 260.468C168.345 260.217 168.448 259.89 168.448 259.487V252.75H169.995ZM176.751 262.189C175.881 262.189 175.079 261.988 174.344 261.584C173.618 261.172 173.04 260.603 172.609 259.877C172.188 259.142 171.977 258.317 171.977 257.403C171.977 256.488 172.188 255.668 172.609 254.942C173.04 254.216 173.618 253.651 174.344 253.248C175.079 252.836 175.881 252.629 176.751 252.629C177.629 252.629 178.431 252.836 179.157 253.248C179.892 253.651 180.471 254.216 180.892 254.942C181.313 255.668 181.524 256.488 181.524 257.403C181.524 258.317 181.313 259.142 180.892 259.877C180.471 260.603 179.892 261.172 179.157 261.584C178.431 261.988 177.629 262.189 176.751 262.189ZM176.751 260.858C177.369 260.858 177.92 260.719 178.404 260.441C178.888 260.155 179.265 259.751 179.534 259.231C179.812 258.702 179.951 258.093 179.951 257.403C179.951 256.712 179.812 256.107 179.534 255.587C179.265 255.068 178.888 254.669 178.404 254.391C177.92 254.113 177.369 253.974 176.751 253.974C176.132 253.974 175.581 254.113 175.097 254.391C174.613 254.669 174.232 255.068 173.954 255.587C173.685 256.107 173.55 256.712 173.55 257.403C173.55 258.093 173.685 258.702 173.954 259.231C174.232 259.751 174.613 260.155 175.097 260.441C175.581 260.719 176.132 260.858 176.751 260.858Z" fill="white"/>
</g>
<defs>
<filter id="filter0_f_15101_192" x="0.133789" y="54.7048" width="380.869" height="273.555" filterUnits="userSpaceOnUse" color-interpolation-filters="sRGB">
<feFlood flood-opacity="0" result="BackgroundImageFix"/>
<feBlend mode="normal" in="SourceGraphic" in2="BackgroundImageFix" result="shape"/>
<feGaussianBlur stdDeviation="15" result="effect1_foregroundBlur_15101_192"/>
</filter>
<linearGradient id="paint0_linear_15101_192" x1="179.28" y1="339.71" x2="58.5608" y2="214.973" gradientUnits="userSpaceOnUse">
<stop stop-color="white"/>
<stop offset="1" stop-color="white" stop-opacity="0"/>
</linearGradient>
<linearGradient id="paint1_linear_15101_192" x1="314.542" y1="-62.8197" x2="401.782" y2="148.68" gradientUnits="userSpaceOnUse">
<stop stop-color="white"/>
<stop offset="1" stop-color="white" stop-opacity="0"/>
</linearGradient>
<linearGradient id="paint2_linear_15101_192" x1="25.3662" y1="-17.7404" x2="112.68" y2="274.724" gradientUnits="userSpaceOnUse">
<stop stop-color="#0283AB"/>
<stop offset="1" stop-color="#0283AB" stop-opacity="0"/>
</linearGradient>
<linearGradient id="paint3_linear_15101_192" x1="-103.5" y1="104.03" x2="412.351" y2="376.401" gradientUnits="userSpaceOnUse">
<stop stop-color="#00A5F0"/>
<stop offset="1" stop-color="#00D7D7"/>
</linearGradient>
<linearGradient id="paint4_linear_15101_192" x1="179.254" y1="340.751" x2="58.5344" y2="216.014" gradientUnits="userSpaceOnUse">
<stop stop-color="white"/>
<stop offset="1" stop-color="white" stop-opacity="0"/>
</linearGradient>
<linearGradient id="paint5_linear_15101_192" x1="314.516" y1="-61.7786" x2="401.756" y2="149.721" gradientUnits="userSpaceOnUse">
<stop stop-color="white"/>
<stop offset="1" stop-color="white" stop-opacity="0"/>
</linearGradient>
<linearGradient id="paint6_linear_15101_192" x1="101.301" y1="150.762" x2="117.462" y2="197.526" gradientUnits="userSpaceOnUse">
<stop stop-color="#DCD59E"/>
<stop offset="1" stop-color="#CBBB82"/>
</linearGradient>
<linearGradient id="paint7_linear_15101_192" x1="80.9688" y1="152.691" x2="101.301" y2="184.649" gradientUnits="userSpaceOnUse">
<stop stop-color="#FBF3C0"/>
<stop offset="1" stop-color="#CCBC84"/>
</linearGradient>
<clipPath id="clip0_15101_192">
<rect x="40.8652" y="61.0958" width="341.746" height="218.493" rx="6.72287" fill="white"/>
</clipPath>
</defs>
</svg>
